<?xml version="1.0" standalone="no"?><!DOCTYPE svg PUBLIC "-//W3C//DTD SVG 1.1//EN" "http://www.w3.org/Graphics/SVG/1.1/DTD/svg11.dtd"><svg t="1764920947877" class="icon" viewBox="0 0 1024 1024" version="1.1" xmlns="http://www.w3.org/2000/svg" p-id="1770" xmlns:xlink="http://www.w3.org/1999/xlink" width="200" height="200"><path d="M347.118644 598.779661l69.423729-69.423729V251.661017h173.559322v277.694915l69.423729 69.423729v312.40678H347.118644z" fill="#CCCCCC" p-id="1771"></path><path d="M659.525424 598.779661l-69.423729-69.423729V251.661017h-86.779661v659.525424h156.20339z" fill="#999999" p-id="1772"></path><path d="M381.830508 911.186441h-69.423728l-34.711865 52.067796h138.847458z" fill="#E7B900" p-id="1773"></path><path d="M277.694915 963.254237h138.847458v52.067797h-138.847458z" fill="#FFD422" p-id="1774"></path><path d="M694.237288 911.186441h-69.423729l-34.711864 52.067796h138.847458z" fill="#E7B900" p-id="1775"></path><path d="M590.101695 963.254237h138.847458v52.067797h-138.847458z" fill="#FFD422" p-id="1776"></path><path d="M503.322034 199.59322c-69.423729 0-86.779661 52.067797-86.779661 52.067797v69.423729s17.355932-52.067797 86.779661-52.067797 86.779661 52.067797 86.779661 52.067797v-69.423729s-17.355932-52.067797-86.779661-52.067797z" fill="#5AAAE7" p-id="1777"></path><path d="M8.517424 762.543729A34.716203 34.716203 0 0 0 0 785.319051V807.050847h254.129898l28.294509-88.335186C289.844068 689.030508 316.517966 668.20339 347.118644 668.20339V373.152542L8.517424 762.543729z" fill="#EBE5DD" p-id="1778"></path><path d="M578.674983 55.248271a84.245695 84.245695 0 0 0-150.705898 0L399.186441 112.813559h208.271186l-28.782644-57.565288z" fill="#F40E34" p-id="1779"></path><path d="M607.457627 112.813559h-52.067796l-28.810848-57.621695C516.338983 34.711864 498.462373 19.612203 477.288136 12.84339 485.618983 10.066441 494.296949 8.677966 503.322034 8.677966c31.934915 0 61.092881 18.050169 75.324746 46.513898L607.457627 112.813559z" fill="#A6001E" p-id="1780"></path><path d="M254.129898 807.050847H0v69.423729c0 19.169627 15.542237 34.711864 34.711864 34.711865h208.271187v-69.336949l11.146847-34.798645z" fill="#5AAAE7" p-id="1781"></path><path d="M282.422237 718.715661L254.129898 807.050847H260.338983h-6.209085L242.983051 841.849492V911.186441h208.271186v-69.336949l-39.439186-123.131661C404.39322 689.030508 377.719322 668.20339 347.118644 668.20339s-57.274576 20.827119-64.696407 50.512271zM659.525424 298.893017c0-53.888-12.546169-107.036203-36.647051-155.235797L607.457627 112.813559h-208.271186l-15.420746 30.843661A347.103458 347.103458 0 0 0 347.118644 298.893017V598.779661l69.423729-69.423729V251.661017s17.355932-52.067797 86.779661-52.067797 86.779661 52.067797 86.779661 52.067797v277.694915l69.423729 69.423729V298.893017zM998.126644 762.543729L659.525424 373.152542v295.050848c30.600678 0 57.274576 20.827119 64.696407 50.512271L752.514169 807.050847H1006.644068v-21.731796c0-8.369898-3.026441-16.459932-8.517424-22.775322z" fill="#EBE5DD" p-id="1782"></path><path d="M752.514169 807.050847h-6.211254 6.211254l-28.294508-88.335186C716.8 689.030508 690.126102 668.20339 659.525424 668.20339s-57.274576 20.827119-64.696407 50.512271L555.389831 841.849492V911.186441h208.271186v-69.336949L752.514169 807.050847z" fill="#EBE5DD" p-id="1783"></path><path d="M763.661017 841.762712v69.423729h-208.271186v-52.067797h156.203389v-69.423729l-11.107796-34.711864-27.422373-85.391187c24.645424 5.03322 44.951864 23.951186 51.2 49.117289L752.55322 807.050847l11.107797 34.711865zM451.254237 841.762712v69.423729h-208.271186v-52.067797h156.20339v-69.423729l-11.107797-34.711864-27.422373-85.391187c24.645424 5.03322 44.951864 23.951186 51.2 49.117289L440.146441 807.050847l11.107796 34.711865z" fill="#D4C8B8" p-id="1784"></path><path d="M763.661017 841.849492V911.186441h208.271186c19.169627 0 34.711864-15.542237 34.711865-34.711865v-69.423729H752.514169L763.661017 841.849492z" fill="#5AAAE7" p-id="1785"></path><path d="M451.254237 911.186441v-69.336949l32.073763-208.559729a20.230508 20.230508 0 0 1 39.988068 0L555.389831 841.849492V911.186441h-104.135594z" fill="#F40E34" p-id="1786"></path><path d="M555.389831 841.849492l-32.073763-208.559729A20.226169 20.226169 0 0 0 503.322034 616.135593v295.050848h52.067797v-69.336949z" fill="#A6001E" p-id="1787"></path><path d="M121.491525 702.915254h34.711865v52.067797H121.491525zM190.915254 702.915254h34.711865v52.067797H190.915254zM781.016949 702.915254h34.711865v52.067797h-34.711865zM850.440678 702.915254h34.711864v52.067797h-34.711864z" fill="#F40E34" p-id="1788"></path><path d="M781.016949 199.59322h34.711865v34.711865h-34.711865zM781.016949 269.016949h34.711865v34.711865h-34.711865zM815.728814 234.305085h34.711864v34.711864h-34.711864zM746.305085 234.305085h34.711864v34.711864h-34.711864zM34.711864 8.677966h34.711865v34.711865H34.711864zM34.711864 78.101695h34.711865v34.711864H34.711864zM69.423729 43.389831h34.711864v34.711864H69.423729zM0 43.389831h34.711864v34.711864H0z" fill="#5AAAE7" p-id="1789"></path><path d="M156.253288 459.932203c-7.322034 0-14.457492-1.119458-21.28922-3.304135l10.643525-33.050034c6.779661 2.186847 14.524746 2.186847 21.441085-0.08461l10.745491 33.017491A69.994305 69.994305 0 0 1 156.253288 459.932203z m-55.998915-28.322711c-8.712678-11.847593-13.372746-25.914576-13.457356-40.677967l34.711864-0.203932c0.049898 7.389288 2.356068 14.407593 6.712407 20.304271l-27.966915 20.577628z m112.16922-0.355797l-28.101424-20.373695A34.440678 34.440678 0 0 0 190.915254 390.508475l34.711865-0.609628V390.508475c0 14.746034-4.560271 28.830373-13.203526 40.74522z m-84.440949-60.947526l-28.238102-20.204474c8.474034-11.830237 20.69478-20.864 34.440678-25.456814l11.016678 32.915526a35.100203 35.100203 0 0 0-17.219254 12.745762z m56.118237-0.457762c-4.440949-5.948746-10.474305-10.255186-17.475254-12.457221l10.407051-33.119457c13.999729 4.406237 26.06861 12.982237 34.898441 24.82983l-27.830238 20.746848zM989.288136 425.220339h34.711864v52.067797h-34.711864zM989.288136 26.033898h34.711864v52.067797h-34.711864z" fill="#FFD422" p-id="1790"></path><path d="M0 876.474576c0 19.169627 15.542237 34.711864 34.711864 34.711865h208.271187v-52.067797H0v17.355932zM763.661017 859.118644v52.067797h208.271186c19.169627 0 34.711864-15.542237 34.711865-34.711865v-17.355932H763.661017zM503.322034 199.59322v69.423729c69.423729 0 86.779661 52.067797 86.779661 52.067797v-69.423729s-17.355932-52.067797-86.779661-52.067797z" fill="#1E81CE" p-id="1791"></path><path d="M104.135593 859.118644H69.423729v-86.779661c0-4.289085 1.592407-8.424136 4.458305-11.611119l156.20339-173.559322 25.797423 23.220068L104.135593 778.999322V859.118644zM324.751186 541.624407l-34.705355 34.705356-24.545628-24.543458 34.707526-34.707525zM295.050847 859.118644h34.711865v52.067797h-34.711865zM295.050847 720.271186h34.711865v104.135594h-34.711865zM607.457627 859.118644h34.711865v52.067797h-34.711865zM607.457627 720.271186h34.711865v104.135594h-34.711865zM501.493153 68.499525l-17.355933 34.711865-31.045423-15.524882 17.355932-34.709694zM416.542373 407.864407h-34.711865v-118.525831a216.120407 216.120407 0 0 1 30.780746-111.151729l23.762441-39.59322 29.763254 17.863593-23.762441 39.593221a181.373831 181.373831 0 0 0-25.829966 93.288135V407.864407zM538.033898 338.440678h34.711865v34.711864h-34.711865zM538.033898 407.864407h34.711865v121.491525h-34.711865zM815.728814 841.762712h34.711864v34.711864h-34.711864zM885.152542 841.762712h121.491526v34.711864h-121.491526z" fill="#FFFFFF" p-id="1792"></path></svg>