<?xml version="1.0" standalone="no"?><!DOCTYPE svg PUBLIC "-//W3C//DTD SVG 1.1//EN" "http://www.w3.org/Graphics/SVG/1.1/DTD/svg11.dtd"><svg height="1024" node-id="1" sillyvg="true" template-height="1024" template-width="1024" version="1.1" viewBox="0 0 1024 1024" width="1024" xmlns="http://www.w3.org/2000/svg" xmlns:xlink="http://www.w3.org/1999/xlink"><defs node-id="74"><linearGradient gradientUnits="objectBoundingBox" id="linearGradient-3" node-id="6" spreadMethod="pad" x1="0.070435904" x2="0.5891686" y1="0.4958516" y2="0.50092435"><stop offset="0" stop-color="#3a58dd" stop-opacity="0"></stop><stop offset="1" stop-color="#4164ff" stop-opacity="0.84686404"></stop></linearGradient><linearGradient gradientUnits="objectBoundingBox" id="linearGradient-4" node-id="9" spreadMethod="pad" x1="0.74961615" x2="0.25038388" y1="0.5790112" y2="0.5897791"><stop offset="0" stop-color="#d9eaff"></stop><stop offset="0.17376924" stop-color="#ddeaff"></stop><stop offset="1" stop-color="#5f99ff"></stop></linearGradient><linearGradient gradientUnits="objectBoundingBox" id="linearGradient-5" node-id="13" spreadMethod="pad" x1="0.549678" x2="0.90664136" y1="0.3252445" y2="0.8265244"><stop offset="0" stop-color="#3a58dd"></stop><stop offset="0.65725714" stop-color="#7192f3"></stop><stop offset="1" stop-color="#92c5ff"></stop></linearGradient><linearGradient gradientUnits="objectBoundingBox" id="linearGradient-6" node-id="17" spreadMethod="pad" x1="0.549678" x2="0.90664136" y1="0.2548272" y2="0.95809656"><stop offset="0" stop-color="#3a58dd"></stop><stop offset="0.65725714" stop-color="#7192f3"></stop><stop offset="1" stop-color="#92c5ff"></stop></linearGradient><linearGradient gradientUnits="objectBoundingBox" id="linearGradient-7" node-id="21" spreadMethod="pad" x1="0.18817772" x2="0.8487974" y1="0.1510806" y2="0.88132906"><stop offset="0" stop-color="#ffffff"></stop><stop offset="0.32222465" stop-color="#ffffff" stop-opacity="0.4384834"></stop><stop offset="0.4830365" stop-color="#ffffff" stop-opacity="0.25991586"></stop><stop offset="0.64434004" stop-color="#ffffff" stop-opacity="0.13027208"></stop><stop offset="0.7857487" stop-color="#ffffff" stop-opacity="0.07375437"></stop><stop offset="0.89633924" stop-color="#ffffff" stop-opacity="0.021853147"></stop><stop offset="1" stop-color="#ffffff" stop-opacity="0"></stop></linearGradient><linearGradient gradientUnits="objectBoundingBox" id="linearGradient-8" node-id="29" spreadMethod="pad" x1="0.84835124" x2="0.42518005" y1="0.51108664" y2="0.48891336"><stop offset="0" stop-color="#92c5ff"></stop><stop offset="1" stop-color="#3a58dd"></stop></linearGradient><linearGradient gradientUnits="objectBoundingBox" id="linearGradient-9" node-id="32" spreadMethod="pad" x1="0.84835124" x2="0.121787444" y1="0.4697662" y2="0.5302338"><stop offset="0" stop-color="#92c5ff"></stop><stop offset="1" stop-color="#3a58dd"></stop></linearGradient><linearGradient gradientUnits="objectBoundingBox" id="linearGradient-10" node-id="35" spreadMethod="pad" x1="0.38794422" x2="0.6120558" y1="0.25623676" y2="0.7497464"><stop offset="0" stop-color="#3a58dd"></stop><stop offset="0.65725714" stop-color="#7192f3"></stop><stop offset="1" stop-color="#92c5ff"></stop></linearGradient><linearGradient gradientUnits="objectBoundingBox" id="linearGradient-11" node-id="39" spreadMethod="pad" x1="0.48451418" x2="0.5969655" y1="0.12585753" y2="0.91581285"><stop offset="0" stop-color="#3a58dd"></stop><stop offset="0.49010092" stop-color="#7192f3"></stop><stop offset="1" stop-color="#92c5ff"></stop></linearGradient><linearGradient gradientUnits="objectBoundingBox" id="linearGradient-12" node-id="43" spreadMethod="pad" x1="0.5" x2="0.50539005" y1="0.022657827" y2="0.90384793"><stop offset="0" stop-color="#3a58dd"></stop><stop offset="0.65725714" stop-color="#7192f3"></stop><stop offset="1" stop-color="#92c5ff"></stop></linearGradient><linearGradient gradientUnits="objectBoundingBox" id="linearGradient1" node-id="158" spreadMethod="pad" x1="0.5977063" x2="0.36781678" y1="0.25274408" y2="1"><stop offset="0" stop-color="#f7df76"></stop><stop offset="1" stop-color="#eeb765"></stop></linearGradient><linearGradient gradientUnits="objectBoundingBox" id="linearGradient-13" node-id="47" spreadMethod="pad" x1="0.5977063" x2="0.36781678" y1="0.25274408" y2="1"><stop offset="0" stop-color="#f7df76"></stop><stop offset="1" stop-color="#eeb765"></stop></linearGradient><radialGradient cx="0.36190832" cy="0.5927583" fx="0.36190832" fy="0.5927583" gradientUnits="objectBoundingBox" id="radialGradient-14" node-id="50" r="0.63407344" rev="1" spreadMethod="pad"><stop offset="0" stop-color="#bfd7ff"></stop><stop offset="1" stop-color="#7195ff"></stop></radialGradient><mask height="68.400024" id="mask-2" maskUnits="userSpaceOnUse" node-id="56" width="686.526" x="-14.565475" y="675.05"><path d="M 956.00 713.00 C 956.00 746.15 909.22 777.95 825.96 801.39 C 742.69 824.83 629.76 838.00 512.00 838.00 C 394.24 838.00 281.31 824.83 198.04 801.39 C 114.78 777.95 68.00 746.15 68.00 713.00 C 68.00 679.85 114.78 648.05 198.04 624.61 C 281.31 601.17 394.24 588.00 512.00 588.00 C 629.76 588.00 742.69 601.17 825.96 624.61 C 909.22 648.05 956.00 679.85 956.00 713.00 Z" fill="#ffffff" fill-rule="evenodd" node-id="180" stroke="none" target-height="250" target-width="888" target-x="68" target-y="588"></path></mask></defs><path d="M 0.00 0.00 L 1024.00 0.00 L 1024.00 1024.00 L 0.00 1024.00 Z" fill="#ffffff" fill-rule="evenodd" node-id="186" stroke="none" target-height="1024" target-width="1024" target-x="0" target-y="0"></path><g node-id="192"><g node-id="197"><path d="M 956.00 713.00 C 956.00 746.15 909.22 777.95 825.96 801.39 C 742.69 824.83 629.76 838.00 512.00 838.00 C 394.24 838.00 281.31 824.83 198.04 801.39 C 114.78 777.95 68.00 746.15 68.00 713.00 C 68.00 679.85 114.78 648.05 198.04 624.61 C 281.31 601.17 394.24 588.00 512.00 588.00 C 629.76 588.00 742.69 601.17 825.96 624.61 C 909.22 648.05 956.00 679.85 956.00 713.00 Z" fill="#f1f5fd" fill-rule="evenodd" group-id="1,6" node-id="190" stroke="none" target-height="250" target-width="888" target-x="68" target-y="588"></path></g><path d="M 61.25 691.00 L 42.65 717.90 L 42.75 737.75 L 447.00 733.50 C 492.83 732.17 526.92 730.42 549.25 728.25 C 571.58 726.08 593.42 722.67 614.75 718.00 L 476.75 680.75 L 61.25 691.00 Z" fill="url(#linearGradient-3)" fill-rule="evenodd" group-id="1,7" id="路径-4" node-id="59" stroke="none" target-height="57" target-width="572.105" target-x="42.645027" target-y="680.75"></path></g><path d="M 437.00 388.00 L 620.00 388.00 L 620.00 647.00 L 437.00 647.00 Z" fill="url(#linearGradient-4)" fill-rule="evenodd" id="矩形" node-id="60" stroke="none" target-height="259" target-width="183" target-x="437" target-y="388"></path><path d="M 620.00 388.50 C 620.00 303.17 562.75 246.25 528.50 234.00 C 491.00 247.25 437.00 303.17 437.00 388.50" fill="url(#linearGradient-5)" fill-rule="evenodd" id="路径" node-id="61" stroke="none" target-height="154.50069" target-width="183" target-x="437" target-y="233.99931"></path><path d="M 561.00 437.50 C 561.00 455.45 546.45 470.00 528.50 470.00 C 510.55 470.00 496.00 455.45 496.00 437.50 C 496.00 419.55 510.55 405.00 528.50 405.00 C 546.45 405.00 561.00 419.55 561.00 437.50 Z" fill="#daeaff" fill-rule="evenodd" id="椭圆形" node-id="62" stroke="none" target-height="65" target-width="65" target-x="496" target-y="405"></path><path d="M 555.20 437.50 C 555.20 452.24 543.24 464.20 528.50 464.20 C 521.42 464.20 514.63 461.38 509.62 456.38 C 504.62 451.37 501.80 444.58 501.80 437.50 C 501.80 430.42 504.62 423.63 509.62 418.62 C 514.63 413.62 521.42 410.80 528.50 410.80 C 543.24 410.80 555.20 422.76 555.20 437.50 Z" fill="url(#linearGradient-6)" fill-rule="evenodd" id="椭圆形备份" node-id="63" stroke="none" target-height="53.392883" target-width="53.392883" target-x="501.80353" target-y="410.80356"></path><path d="M 535.00 432.50 C 535.00 440.51 528.51 447.00 520.50 447.00 C 512.49 447.00 506.00 440.51 506.00 432.50 C 506.00 424.49 512.49 418.00 520.50 418.00 C 528.51 418.00 535.00 424.49 535.00 432.50 Z" fill="url(#linearGradient-7)" fill-rule="evenodd" id="椭圆形" node-id="64" stroke="none" target-height="29" target-width="29" target-x="506" target-y="418"></path><path d="M 437.00 647.00 L 464.16 673.75 L 592.33 673.75 L 620.00 646.50 Z" fill="url(#linearGradient-8)" fill-rule="evenodd" id="路径-29" node-id="65" stroke="none" target-height="27.25" target-width="183" target-x="437" target-y="646.5"></path><g node-id="193"><path d="M 440.73 711.61 L 464.16 673.50 L 464.16 673.50 L 592.33 673.50 L 616.23 712.37 C 617.39 714.25 616.80 716.72 614.92 717.88 C 614.29 718.27 613.55 718.47 612.81 718.47 L 444.12 717.71 C 441.91 717.70 440.12 715.90 440.13 713.69 C 440.14 712.95 440.34 712.24 440.73 711.61 Z" fill="url(#linearGradient-9)" fill-rule="evenodd" group-id="2" id="路径-29备份" node-id="66" stroke="none" target-height="44.970886" target-width="177.26495" target-x="440.125" target-y="673.5"></path></g><path d="M 437.00 517.00 L 356.00 563.78 C 351.05 566.63 348.00 571.92 348.00 577.63 L 348.00 698.03 C 348.00 700.24 349.79 702.03 352.00 702.03 C 352.71 702.03 353.41 701.84 354.02 701.48 L 437.00 652.94 L 437.00 652.94 L 437.00 517.00 Z" fill="url(#linearGradient-10)" fill-rule="evenodd" id="路径-30" node-id="67" stroke="none" target-height="185.02606" target-width="89" target-x="348" target-y="517"></path><g node-id="194"><path d="M 620.00 517.00 L 701.00 563.78 C 705.95 566.63 709.00 571.92 709.00 577.63 L 709.00 698.03 C 709.00 700.24 707.21 702.03 705.00 702.03 C 704.29 702.03 703.59 701.84 702.98 701.48 L 620.00 652.94 L 620.00 652.94 L 620.00 517.00 Z" fill="url(#linearGradient-11)" fill-rule="evenodd" group-id="3" id="路径-30备份" node-id="68" stroke="none" target-height="185.02606" target-width="89" target-x="620" target-y="517"></path></g><path d="M 512.00 558.23 C 518.89 527.58 524.22 512.25 528.00 512.25 C 531.78 512.25 537.11 527.58 544.00 558.23 L 544.00 659.33 L 529.92 706.79 C 529.60 707.85 528.49 708.45 527.43 708.14 C 526.78 707.94 526.28 707.44 526.08 706.79 L 512.00 659.33 L 512.00 659.33 L 512.00 558.23 Z" fill="url(#linearGradient-12)" fill-rule="evenodd" id="矩形" node-id="69" stroke="none" target-height="196.20099" target-width="32" target-x="512" target-y="512.25"></path><g node-id="195"><path d="M 305.69 286.73 C 299.86 300.45 306.26 316.30 319.99 322.13 C 306.26 316.30 290.41 322.71 284.59 336.43 C 290.41 322.71 284.01 306.86 270.28 301.03 C 284.01 306.86 299.86 300.45 305.69 286.73 Z" fill="url(#linearGradient1)" fill-rule="evenodd" group-id="4" id="矩形" node-id="70" stroke="none" target-height="49.707275" target-width="49.707275" target-x="270.28192" target-y="286.7257"></path></g><g node-id="196"><path d="M 327.06 326.15 C 323.93 333.52 327.37 342.03 334.74 345.16 C 327.37 342.03 318.86 345.47 315.73 352.84 C 318.86 345.47 315.42 336.96 308.05 333.83 C 315.42 336.96 323.93 333.52 327.06 326.15 Z" fill="url(#linearGradient-13)" fill-rule="evenodd" group-id="5" id="矩形备份" node-id="71" stroke="none" target-height="26.694641" target-width="26.694641" target-x="308.04987" target-y="326.14902"></path></g><path d="M 815.00 527.50 C 815.00 536.06 808.06 543.00 799.50 543.00 C 790.94 543.00 784.00 536.06 784.00 527.50 C 784.00 518.94 790.94 512.00 799.50 512.00 C 808.06 512.00 815.00 518.94 815.00 527.50 Z" fill="url(#radialGradient-14)" fill-rule="evenodd" id="椭圆形备份-2" node-id="72" stroke="none" target-height="31" target-width="31" target-x="784" target-y="512"></path></svg>